<svg width="186" height="289" viewBox="0 0 186 289" fill="none" xmlns="http://www.w3.org/2000/svg">
<path d="M38.9278 277.685L39.3805 278.072C46.6527 284.283 57.4409 284.002 64.379 277.419C68.0981 273.891 70.2043 269.012 70.2043 263.885L70.2041 141.564C70.2041 141.162 100.257 126.001 100.257 98.2245V13.4901C100.257 9.94311 98.5507 6.61499 95.6712 4.54377C91.8843 1.81976 86.7339 1.81517 82.8991 4.47143C79.8785 6.5637 78.032 10.0351 78.032 13.7095V85.2556C78.032 87.5277 77.0827 89.6964 75.4134 91.2378C72.4273 93.9952 67.8651 94.1282 64.7234 91.5495L64.4972 91.3638C62.5351 89.7533 61.3978 87.3485 61.3978 84.8101V13.4415C61.3978 9.92347 59.7162 6.61739 56.8729 4.54561C53.1284 1.81721 48.0764 1.72562 44.2355 4.31651L44.0217 4.4607C40.887 6.57524 39.008 10.1093 39.008 13.8905V85.159C39.008 87.4879 38.0138 89.7061 36.2753 91.2558C33.2031 93.9943 28.5469 93.9963 25.4455 91.2909C23.6542 89.7285 22.6125 87.4557 22.6125 85.0787V13.6515C22.6125 10.0088 20.8434 6.59294 17.8683 4.49111C14.0453 1.79036 8.89061 1.78627 5.02303 4.42269C1.91128 6.54388 0.0053853 10.0853 0.00468318 13.8512C0.00167757 29.9725 -0.00516327 74.5593 0.00588481 98.2245C0.0195312 127.455 32.1457 140.741 32.1457 141.564L32.1458 263.009C32.1458 268.669 34.6241 274.009 38.9278 277.685Z" fill="#F97316"/>
<path d="M154.73 277.685L155.183 278.072C162.455 284.284 173.243 284.002 180.181 277.419C183.9 273.891 186.006 269.013 186.006 263.887L186.006 170.644L186.006 141.564V21.2527C186.006 10.4748 177.269 1.73762 166.491 1.73762C149.006 1.73762 133.122 21.7644 124.822 75.6083C116.522 129.452 147.948 162.344 147.948 162.344L147.948 263.001C147.948 268.661 150.426 274.009 154.73 277.685Z" fill="#F97316"/>
</svg>
